<?xml version="1.0" encoding="UTF-8" standalone="no"?><svg xmlns="http://www.w3.org/2000/svg" xmlns:xlink="http://www.w3.org/1999/xlink" contentScriptType="application/ecmascript" contentStyleType="text/css" height="1108px" preserveAspectRatio="none" style="width:951px;height:1108px;" version="1.1" viewBox="0 0 951 1108" width="951px" zoomAndPan="magnify"><defs><filter height="300%" id="f1vm9ypv76vdcs" width="300%" x="-1" y="-1"><feGaussianBlur result="blurOut" stdDeviation="2.0"/><feColorMatrix in="blurOut" result="blurOut2" type="matrix" values="0 0 0 0 0 0 0 0 0 0 0 0 0 0 0 0 0 0 .4 0"/><feOffset dx="4.0" dy="4.0" in="blurOut2" result="blurOut3"/><feBlend in="SourceGraphic" in2="blurOut3" mode="normal"/></filter></defs><g><line style="stroke: #808080; stroke-width: 1.0; stroke-dasharray: 5.0,5.0;" x1="46" x2="46" y1="54.5938" y2="1096.8438"/><line style="stroke: #808080; stroke-width: 1.0; stroke-dasharray: 5.0,5.0;" x1="163" x2="163" y1="54.5938" y2="1096.8438"/><line style="stroke: #808080; stroke-width: 1.0; stroke-dasharray: 5.0,5.0;" x1="303" x2="303" y1="54.5938" y2="1096.8438"/><line style="stroke: #808080; stroke-width: 1.0; stroke-dasharray: 5.0,5.0;" x1="419" x2="419" y1="54.5938" y2="1096.8438"/><line style="stroke: #808080; stroke-width: 1.0; stroke-dasharray: 5.0,5.0;" x1="543" x2="543" y1="54.5938" y2="1096.8438"/><line style="stroke: #808080; stroke-width: 1.0; stroke-dasharray: 5.0,5.0;" x1="711" x2="711" y1="54.5938" y2="1096.8438"/><line style="stroke: #808080; stroke-width: 1.0; stroke-dasharray: 5.0,5.0;" x1="863" x2="863" y1="54.5938" y2="1096.8438"/><rect fill="#FFFFE0" filter="url(#f1vm9ypv76vdcs)" height="30.2969" style="stroke: #808080; stroke-width: 1.5;" width="72" x="8" y="19.2969"/><text fill="#000000" font-family="sans-serif" font-size="14" lengthAdjust="spacingAndGlyphs" textLength="58" x="15" y="39.292">Browser</text><rect fill="#FFFFE0" filter="url(#f1vm9ypv76vdcs)" height="46.5938" style="stroke: #808080; stroke-width: 1.5;" width="135" x="94" y="3"/><text fill="#000000" font-family="sans-serif" font-size="14" lengthAdjust="spacingAndGlyphs" textLength="44" x="139.5" y="22.9951">AuthN</text><text fill="#000000" font-family="sans-serif" font-size="14" lengthAdjust="spacingAndGlyphs" textLength="121" x="101" y="39.292">Identity Provider</text><rect fill="#FFFFE0" filter="url(#f1vm9ypv76vdcs)" height="30.2969" style="stroke: #808080; stroke-width: 1.5;" width="116" x="243" y="19.2969"/><text fill="#000000" font-family="sans-serif" font-size="14" lengthAdjust="spacingAndGlyphs" textLength="102" x="250" y="39.292">Reverse Proxy</text><rect fill="#90EE90" filter="url(#f1vm9ypv76vdcs)" height="30.2969" style="stroke: #808080; stroke-width: 1.5;" width="89" x="373" y="19.2969"/><text fill="#000000" font-family="sans-serif" font-size="14" lengthAdjust="spacingAndGlyphs" textLength="75" x="380" y="39.292">Plug-Front</text><rect fill="#90EE90" filter="url(#f1vm9ypv76vdcs)" height="30.2969" style="stroke: #808080; stroke-width: 1.5;" width="85" x="499" y="19.2969"/><text fill="#000000" font-family="sans-serif" font-size="14" lengthAdjust="spacingAndGlyphs" textLength="71" x="506" y="39.292">Plug-Back</text><rect fill="#FFFFE0" filter="url(#f1vm9ypv76vdcs)" height="46.5938" style="stroke: #808080; stroke-width: 1.5;" width="135" x="642" y="3"/><text fill="#000000" font-family="sans-serif" font-size="14" lengthAdjust="spacingAndGlyphs" textLength="44" x="687.5" y="22.9951">AuthZ</text><text fill="#000000" font-family="sans-serif" font-size="14" lengthAdjust="spacingAndGlyphs" textLength="121" x="649" y="39.292">Identity Provider</text><rect fill="#FFFFE0" filter="url(#f1vm9ypv76vdcs)" height="30.2969" style="stroke: #808080; stroke-width: 1.5;" width="141" x="791" y="19.2969"/><text fill="#000000" font-family="sans-serif" font-size="14" lengthAdjust="spacingAndGlyphs" textLength="127" x="798" y="39.292">Web Applications</text><polygon fill="#2F4F4F" points="291,81.7266,301,85.7266,291,89.7266,295,85.7266" style="stroke: #2F4F4F; stroke-width: 1.0;"/><line style="stroke: #2F4F4F; stroke-width: 1.0;" x1="46" x2="297" y1="85.7266" y2="85.7266"/><text fill="#000000" font-family="sans-serif" font-size="13" lengthAdjust="spacingAndGlyphs" textLength="58" x="53" y="80.6606">GET /app</text><polygon fill="#2F4F4F" points="407.5,110.8594,417.5,114.8594,407.5,118.8594,411.5,114.8594" style="stroke: #2F4F4F; stroke-width: 1.0;"/><line style="stroke: #2F4F4F; stroke-width: 1.0;" x1="303" x2="413.5" y1="114.8594" y2="114.8594"/><text fill="#000000" font-family="sans-serif" font-size="13" lengthAdjust="spacingAndGlyphs" textLength="83" x="310" y="109.7935">/validate/app</text><line style="stroke: #2F4F4F; stroke-width: 1.0;" x1="419.5" x2="461.5" y1="159.125" y2="159.125"/><line style="stroke: #2F4F4F; stroke-width: 1.0;" x1="461.5" x2="461.5" y1="159.125" y2="172.125"/><line style="stroke: #2F4F4F; stroke-width: 1.0;" x1="420.5" x2="461.5" y1="172.125" y2="172.125"/><polygon fill="#2F4F4F" points="430.5,168.125,420.5,172.125,430.5,176.125,426.5,172.125" style="stroke: #2F4F4F; stroke-width: 1.0;"/><text fill="#000000" font-family="sans-serif" font-size="13" lengthAdjust="spacingAndGlyphs" textLength="110" x="426.5" y="138.9263">/app valid realm?</text><text fill="#000000" font-family="sans-serif" font-size="13" lengthAdjust="spacingAndGlyphs" textLength="23" x="426.5" y="154.0591">Yes</text><line style="stroke: #2F4F4F; stroke-width: 1.0;" x1="419.5" x2="461.5" y1="216.3906" y2="216.3906"/><line style="stroke: #2F4F4F; stroke-width: 1.0;" x1="461.5" x2="461.5" y1="216.3906" y2="229.3906"/><line style="stroke: #2F4F4F; stroke-width: 1.0;" x1="420.5" x2="461.5" y1="229.3906" y2="229.3906"/><polygon fill="#2F4F4F" points="430.5,225.3906,420.5,229.3906,430.5,233.3906,426.5,229.3906" style="stroke: #2F4F4F; stroke-width: 1.0;"/><text fill="#000000" font-family="sans-serif" font-size="13" lengthAdjust="spacingAndGlyphs" textLength="97" x="426.5" y="196.1919">Authenticated?</text><text fill="#000000" font-family="sans-serif" font-size="13" lengthAdjust="spacingAndGlyphs" textLength="17" x="426.5" y="211.3247">No</text><polygon fill="#2F4F4F" points="314,254.5234,304,258.5234,314,262.5234,310,258.5234" style="stroke: #2F4F4F; stroke-width: 1.0;"/><line style="stroke: #2F4F4F; stroke-width: 1.0;" x1="308" x2="418.5" y1="258.5234" y2="258.5234"/><text fill="#000000" font-family="sans-serif" font-size="13" lengthAdjust="spacingAndGlyphs" textLength="61" x="320" y="253.4575">HTTP 401</text><polygon fill="#2F4F4F" points="407.5,283.6563,417.5,287.6563,407.5,291.6563,411.5,287.6563" style="stroke: #2F4F4F; stroke-width: 1.0;"/><line style="stroke: #2F4F4F; stroke-width: 1.0;" x1="303" x2="413.5" y1="287.6563" y2="287.6563"/><text fill="#000000" font-family="sans-serif" font-size="13" lengthAdjust="spacingAndGlyphs" textLength="64" x="310" y="282.5903">GET /login</text><polygon fill="#2F4F4F" points="57,312.7891,47,316.7891,57,320.7891,53,316.7891" style="stroke: #2F4F4F; stroke-width: 1.0;"/><polygon fill="#2F4F4F" points="407.5,312.7891,417.5,316.7891,407.5,320.7891,411.5,316.7891" style="stroke: #2F4F4F; stroke-width: 1.0;"/><line style="stroke: #2F4F4F; stroke-width: 1.0;" x1="51" x2="413.5" y1="316.7891" y2="316.7891"/><text fill="#000000" font-family="sans-serif" font-size="13" lengthAdjust="spacingAndGlyphs" textLength="121" x="63" y="311.7231">Pre-Login selection</text><polygon fill="#2F4F4F" points="57,341.9219,47,345.9219,57,349.9219,53,345.9219" style="stroke: #2F4F4F; stroke-width: 1.0;"/><line style="stroke: #2F4F4F; stroke-width: 1.0;" x1="51" x2="418.5" y1="345.9219" y2="345.9219"/><text fill="#000000" font-family="sans-serif" font-size="13" lengthAdjust="spacingAndGlyphs" textLength="170" x="63" y="340.856">HTTP 301 login callback url</text><polygon fill="#2F4F4F" points="151.5,371.0547,161.5,375.0547,151.5,379.0547,155.5,375.0547" style="stroke: #2F4F4F; stroke-width: 1.0;"/><line style="stroke: #2F4F4F; stroke-width: 1.0;" x1="46" x2="157.5" y1="375.0547" y2="375.0547"/><text fill="#000000" font-family="sans-serif" font-size="13" lengthAdjust="spacingAndGlyphs" textLength="34" x="53" y="369.9888">Login</text><polygon fill="#2F4F4F" points="57,400.1875,47,404.1875,57,408.1875,53,404.1875" style="stroke: #2F4F4F; stroke-width: 1.0;"/><line style="stroke: #2F4F4F; stroke-width: 1.0;" x1="51" x2="162.5" y1="404.1875" y2="404.1875"/><text fill="#000000" font-family="sans-serif" font-size="13" lengthAdjust="spacingAndGlyphs" textLength="61" x="63" y="399.1216">HTTP 301</text><polygon fill="#2F4F4F" points="407.5,429.3203,417.5,433.3203,407.5,437.3203,411.5,433.3203" style="stroke: #2F4F4F; stroke-width: 1.0;"/><line style="stroke: #2F4F4F; stroke-width: 1.0;" x1="46" x2="413.5" y1="433.3203" y2="433.3203"/><text fill="#000000" font-family="sans-serif" font-size="13" lengthAdjust="spacingAndGlyphs" textLength="162" x="53" y="428.2544">Oauth2 callback endpoint</text><polygon fill="#2F4F4F" points="174.5,458.4531,164.5,462.4531,174.5,466.4531,170.5,462.4531" style="stroke: #2F4F4F; stroke-width: 1.0;"/><line style="stroke: #2F4F4F; stroke-width: 1.0;" x1="168.5" x2="418.5" y1="462.4531" y2="462.4531"/><text fill="#000000" font-family="sans-serif" font-size="13" lengthAdjust="spacingAndGlyphs" textLength="86" x="180.5" y="457.3872">GET /userinfo</text><polygon fill="#2F4F4F" points="407.5,472.4531,417.5,476.4531,407.5,480.4531,411.5,476.4531" style="stroke: #2F4F4F; stroke-width: 1.0;"/><line style="stroke: #2F4F4F; stroke-width: 1.0;" x1="163.5" x2="413.5" y1="476.4531" y2="476.4531"/><line style="stroke: #2F4F4F; stroke-width: 1.0;" x1="419.5" x2="461.5" y1="520.7188" y2="520.7188"/><line style="stroke: #2F4F4F; stroke-width: 1.0;" x1="461.5" x2="461.5" y1="520.7188" y2="533.7188"/><line style="stroke: #2F4F4F; stroke-width: 1.0;" x1="420.5" x2="461.5" y1="533.7188" y2="533.7188"/><polygon fill="#2F4F4F" points="430.5,529.7188,420.5,533.7188,430.5,537.7188,426.5,533.7188" style="stroke: #2F4F4F; stroke-width: 1.0;"/><text fill="#000000" font-family="sans-serif" font-size="13" lengthAdjust="spacingAndGlyphs" textLength="97" x="426.5" y="500.52">Authenticated?</text><text fill="#000000" font-family="sans-serif" font-size="13" lengthAdjust="spacingAndGlyphs" textLength="23" x="426.5" y="515.6528">Yes</text><line style="stroke: #2F4F4F; stroke-width: 1.0;" x1="419.5" x2="461.5" y1="577.9844" y2="577.9844"/><line style="stroke: #2F4F4F; stroke-width: 1.0;" x1="461.5" x2="461.5" y1="577.9844" y2="590.9844"/><line style="stroke: #2F4F4F; stroke-width: 1.0;" x1="420.5" x2="461.5" y1="590.9844" y2="590.9844"/><polygon fill="#2F4F4F" points="430.5,586.9844,420.5,590.9844,430.5,594.9844,426.5,590.9844" style="stroke: #2F4F4F; stroke-width: 1.0;"/><text fill="#000000" font-family="sans-serif" font-size="13" lengthAdjust="spacingAndGlyphs" textLength="109" x="426.5" y="557.7856">GeoLocation OK?</text><text fill="#000000" font-family="sans-serif" font-size="13" lengthAdjust="spacingAndGlyphs" textLength="23" x="426.5" y="572.9185">Yes</text><line style="stroke: #2F4F4F; stroke-width: 1.0;" x1="419.5" x2="461.5" y1="635.25" y2="635.25"/><line style="stroke: #2F4F4F; stroke-width: 1.0;" x1="461.5" x2="461.5" y1="635.25" y2="648.25"/><line style="stroke: #2F4F4F; stroke-width: 1.0;" x1="420.5" x2="461.5" y1="648.25" y2="648.25"/><polygon fill="#2F4F4F" points="430.5,644.25,420.5,648.25,430.5,652.25,426.5,648.25" style="stroke: #2F4F4F; stroke-width: 1.0;"/><text fill="#000000" font-family="sans-serif" font-size="13" lengthAdjust="spacingAndGlyphs" textLength="76" x="426.5" y="615.0513">Authorized?</text><text fill="#000000" font-family="sans-serif" font-size="13" lengthAdjust="spacingAndGlyphs" textLength="17" x="426.5" y="630.1841">No</text><polygon fill="#2F4F4F" points="531.5,658.25,541.5,662.25,531.5,666.25,535.5,662.25" style="stroke: #2F4F4F; stroke-width: 1.0;"/><line style="stroke: #2F4F4F; stroke-width: 1.0;" x1="419.5" x2="537.5" y1="662.25" y2="662.25"/><polygon fill="#2F4F4F" points="699.5,702.5156,709.5,706.5156,699.5,710.5156,703.5,706.5156" style="stroke: #2F4F4F; stroke-width: 1.0;"/><line style="stroke: #2F4F4F; stroke-width: 1.0;" x1="543.5" x2="705.5" y1="706.5156" y2="706.5156"/><text fill="#000000" font-family="sans-serif" font-size="13" lengthAdjust="spacingAndGlyphs" textLength="144" x="550.5" y="686.3169">e.g. isMemberOfGroup</text><text fill="#000000" font-family="sans-serif" font-size="13" lengthAdjust="spacingAndGlyphs" textLength="71" x="550.5" y="701.4497">Employees</text><polygon fill="#2F4F4F" points="554.5,716.5156,544.5,720.5156,554.5,724.5156,550.5,720.5156" style="stroke: #2F4F4F; stroke-width: 1.0;"/><line style="stroke: #2F4F4F; stroke-width: 1.0;" x1="548.5" x2="710.5" y1="720.5156" y2="720.5156"/><polygon fill="#2F4F4F" points="430.5,730.5156,420.5,734.5156,430.5,738.5156,426.5,734.5156" style="stroke: #2F4F4F; stroke-width: 1.0;"/><line style="stroke: #2F4F4F; stroke-width: 1.0;" x1="424.5" x2="542.5" y1="734.5156" y2="734.5156"/><line style="stroke: #2F4F4F; stroke-width: 1.0;" x1="419.5" x2="461.5" y1="778.7813" y2="778.7813"/><line style="stroke: #2F4F4F; stroke-width: 1.0;" x1="461.5" x2="461.5" y1="778.7813" y2="791.7813"/><line style="stroke: #2F4F4F; stroke-width: 1.0;" x1="420.5" x2="461.5" y1="791.7813" y2="791.7813"/><polygon fill="#2F4F4F" points="430.5,787.7813,420.5,791.7813,430.5,795.7813,426.5,791.7813" style="stroke: #2F4F4F; stroke-width: 1.0;"/><text fill="#000000" font-family="sans-serif" font-size="13" lengthAdjust="spacingAndGlyphs" textLength="76" x="426.5" y="758.5825">Authorized?</text><text fill="#000000" font-family="sans-serif" font-size="13" lengthAdjust="spacingAndGlyphs" textLength="23" x="426.5" y="773.7153">Yes</text><line style="stroke: #2F4F4F; stroke-width: 1.0;" x1="419.5" x2="461.5" y1="836.0469" y2="836.0469"/><line style="stroke: #2F4F4F; stroke-width: 1.0;" x1="461.5" x2="461.5" y1="836.0469" y2="849.0469"/><line style="stroke: #2F4F4F; stroke-width: 1.0;" x1="420.5" x2="461.5" y1="849.0469" y2="849.0469"/><polygon fill="#2F4F4F" points="430.5,845.0469,420.5,849.0469,430.5,853.0469,426.5,849.0469" style="stroke: #2F4F4F; stroke-width: 1.0;"/><text fill="#000000" font-family="sans-serif" font-size="13" lengthAdjust="spacingAndGlyphs" textLength="59" x="426.5" y="815.8481">Use 2FA?</text><text fill="#000000" font-family="sans-serif" font-size="13" lengthAdjust="spacingAndGlyphs" textLength="23" x="426.5" y="830.981">Yes</text><polygon fill="#2F4F4F" points="531.5,874.1797,541.5,878.1797,531.5,882.1797,535.5,878.1797" style="stroke: #2F4F4F; stroke-width: 1.0;"/><line style="stroke: #2F4F4F; stroke-width: 1.0;" x1="419.5" x2="537.5" y1="878.1797" y2="878.1797"/><text fill="#000000" font-family="sans-serif" font-size="13" lengthAdjust="spacingAndGlyphs" textLength="51" x="426.5" y="873.1138">Get 2FA</text><polygon fill="#2F4F4F" points="430.5,888.1797,420.5,892.1797,430.5,896.1797,426.5,892.1797" style="stroke: #2F4F4F; stroke-width: 1.0;"/><line style="stroke: #2F4F4F; stroke-width: 1.0;" x1="424.5" x2="542.5" y1="892.1797" y2="892.1797"/><polygon fill="#2F4F4F" points="57,902.1797,47,906.1797,57,910.1797,53,906.1797" style="stroke: #2F4F4F; stroke-width: 1.0;"/><line style="stroke: #2F4F4F; stroke-width: 1.0;" x1="51" x2="418.5" y1="906.1797" y2="906.1797"/><polygon fill="#2F4F4F" points="407.5,931.3125,417.5,935.3125,407.5,939.3125,411.5,935.3125" style="stroke: #2F4F4F; stroke-width: 1.0;"/><line style="stroke: #2F4F4F; stroke-width: 1.0;" x1="46" x2="413.5" y1="935.3125" y2="935.3125"/><text fill="#000000" font-family="sans-serif" font-size="13" lengthAdjust="spacingAndGlyphs" textLength="128" x="53" y="930.2466">One Time Password</text><line style="stroke: #2F4F4F; stroke-width: 1.0;" x1="419.5" x2="461.5" y1="979.5781" y2="979.5781"/><line style="stroke: #2F4F4F; stroke-width: 1.0;" x1="461.5" x2="461.5" y1="979.5781" y2="992.5781"/><line style="stroke: #2F4F4F; stroke-width: 1.0;" x1="420.5" x2="461.5" y1="992.5781" y2="992.5781"/><polygon fill="#2F4F4F" points="430.5,988.5781,420.5,992.5781,430.5,996.5781,426.5,992.5781" style="stroke: #2F4F4F; stroke-width: 1.0;"/><text fill="#000000" font-family="sans-serif" font-size="13" lengthAdjust="spacingAndGlyphs" textLength="53" x="426.5" y="959.3794">2FA OK?</text><text fill="#000000" font-family="sans-serif" font-size="13" lengthAdjust="spacingAndGlyphs" textLength="23" x="426.5" y="974.5122">Yes</text><polygon fill="#2F4F4F" points="314,1017.7109,304,1021.7109,314,1025.7109,310,1021.7109" style="stroke: #2F4F4F; stroke-width: 1.0;"/><line style="stroke: #2F4F4F; stroke-width: 1.0;" x1="308" x2="418.5" y1="1021.7109" y2="1021.7109"/><text fill="#000000" font-family="sans-serif" font-size="13" lengthAdjust="spacingAndGlyphs" textLength="61" x="320" y="1016.645">HTTP 200</text><polygon fill="#2F4F4F" points="851.5,1031.7109,861.5,1035.7109,851.5,1039.7109,855.5,1035.7109" style="stroke: #2F4F4F; stroke-width: 1.0;"/><line style="stroke: #2F4F4F; stroke-width: 1.0;" x1="303" x2="857.5" y1="1035.7109" y2="1035.7109"/><polygon fill="#2F4F4F" points="314,1045.7109,304,1049.7109,314,1053.7109,310,1049.7109" style="stroke: #2F4F4F; stroke-width: 1.0;"/><line style="stroke: #2F4F4F; stroke-width: 1.0;" x1="308" x2="862.5" y1="1049.7109" y2="1049.7109"/><polygon fill="#2F4F4F" points="57,1074.8438,47,1078.8438,57,1082.8438,53,1078.8438" style="stroke: #2F4F4F; stroke-width: 1.0;"/><line style="stroke: #2F4F4F; stroke-width: 1.0;" x1="51" x2="302" y1="1078.8438" y2="1078.8438"/><text fill="#000000" font-family="sans-serif" font-size="13" lengthAdjust="spacingAndGlyphs" textLength="18" x="63" y="1073.7778">OK</text><!--MD5=[f63dc9354d070cd73c6c6deefa082a92]
@startuml
skinparam sequence {
ArrowColor DarkSlateGrey
ParticipantBorderColor Grey
ParticipantBackgroundColor lightyellow
LifeLineBorderColor Grey
}
hide footbox
participant  "Browser" as B
participant "AuthN\nIdentity Provider" as AuthN
participant "Reverse Proxy" as RP
participant "Plug-Front" as PF #lightgreen
participant "Plug-Back" as PB #lightgreen
participant "AuthZ\nIdentity Provider" as AuthZ
participant "Web Applications" as WWW
B -> RP : GET /app
RP -> PF : /validate/app
PF -> PF : /app valid realm?\nYes 
PF -> PF : Authenticated?\nNo
PF -> RP : HTTP 401
RP -> PF : GET /login
PF <-> B : Pre-Login selection
PF -> B : HTTP 301 login callback url
B -> AuthN : Login
AuthN -> B : HTTP 301
B -> PF : Oauth2 callback endpoint
PF -> AuthN : GET /userinfo
AuthN -> PF
PF -> PF : Authenticated?\nYes
PF -> PF : GeoLocation OK?\nYes
PF -> PF : Authorized?\nNo
PF -> PB
PB -> AuthZ : e.g. isMemberOfGroup\nEmployees
AuthZ -> PB
PB -> PF
PF -> PF : Authorized?\nYes
PF -> PF : Use 2FA?\nYes
PF -> PB : Get 2FA
PB -> PF
PF -> B
B -> PF : One Time Password
PF -> PF : 2FA OK?\nYes
PF -> RP : HTTP 200
RP -> WWW
WWW -> RP
RP -> B : OK
@enduml

PlantUML version 1.2020.17beta5(Unknown compile time)
(GPL source distribution)
Java Runtime: Java(TM) SE Runtime Environment
JVM: Java HotSpot(TM) 64-Bit Server VM
Default Encoding: UTF-8
Language: en
Country: US
--></g></svg>