<?xml version="1.0" encoding="UTF-8" standalone="yes"?><svg xmlns="http://www.w3.org/2000/svg" xmlns:xlink="http://www.w3.org/1999/xlink" height="348px" style="width:560px;height:348px;" version="1.1" viewBox="0 0 560 348" width="560px"><defs><filter height="300%" id="f1" width="300%" x="-1" y="-1"><feGaussianBlur result="blurOut" stdDeviation="2.0"/><feColorMatrix in="blurOut" result="blurOut2" type="matrix" values="0 0 0 0 0 0 0 0 0 0 0 0 0 0 0 0 0 0 .4 0"/><feOffset dx="4.0" dy="4.0" in="blurOut2" result="blurOut3"/><feBlend in="SourceGraphic" in2="blurOut3" mode="normal"/></filter></defs><g><line style="stroke: #A80036; stroke-width: 1.0; stroke-dasharray: 5.0,5.0;" x1="70" x2="70" y1="54.5938" y2="293.9922"/><line style="stroke: #A80036; stroke-width: 1.0; stroke-dasharray: 5.0,5.0;" x1="197" x2="197" y1="54.5938" y2="293.9922"/><line style="stroke: #A80036; stroke-width: 1.0; stroke-dasharray: 5.0,5.0;" x1="306" x2="306" y1="54.5938" y2="293.9922"/><line style="stroke: #A80036; stroke-width: 1.0; stroke-dasharray: 5.0,5.0;" x1="405" x2="405" y1="54.5938" y2="293.9922"/><line style="stroke: #A80036; stroke-width: 1.0; stroke-dasharray: 5.0,5.0;" x1="504" x2="504" y1="54.5938" y2="293.9922"/><rect fill="#FEFECE" filter="url(#f1)" height="46.5938" style="stroke: #A80036; stroke-width: 1.5;" width="120" x="8" y="3"/><text fill="#000000" font-family="sans-serif" font-size="14" lengthAdjust="spacingAndGlyphs" textLength="106" x="15" y="22.9951">CA Provisioning</text><text fill="#000000" font-family="sans-serif" font-size="14" lengthAdjust="spacingAndGlyphs" textLength="44" x="46" y="39.292">Server</text><rect fill="#FEFECE" filter="url(#f1)" height="46.5938" style="stroke: #A80036; stroke-width: 1.5;" width="120" x="8" y="292.9922"/><text fill="#000000" font-family="sans-serif" font-size="14" lengthAdjust="spacingAndGlyphs" textLength="106" x="15" y="312.9873">CA Provisioning</text><text fill="#000000" font-family="sans-serif" font-size="14" lengthAdjust="spacingAndGlyphs" textLength="44" x="46" y="329.2842">Server</text><rect fill="#90EE90" filter="url(#f1)" height="30.2969" style="stroke: #A80036; stroke-width: 1.5;" width="106" x="142" y="19.2969"/><text fill="#000000" font-family="sans-serif" font-size="14" lengthAdjust="spacingAndGlyphs" textLength="92" x="149" y="39.292">ScimGateway</text><rect fill="#90EE90" filter="url(#f1)" height="30.2969" style="stroke: #A80036; stroke-width: 1.5;" width="106" x="142" y="292.9922"/><text fill="#000000" font-family="sans-serif" font-size="14" lengthAdjust="spacingAndGlyphs" textLength="92" x="149" y="312.9873">ScimGateway</text><rect fill="#FEFECE" filter="url(#f1)" height="30.2969" style="stroke: #A80036; stroke-width: 1.5;" width="85" x="262" y="19.2969"/><text fill="#000000" font-family="sans-serif" font-size="14" lengthAdjust="spacingAndGlyphs" textLength="71" x="269" y="39.292">Endpoint1</text><rect fill="#FEFECE" filter="url(#f1)" height="30.2969" style="stroke: #A80036; stroke-width: 1.5;" width="85" x="262" y="292.9922"/><text fill="#000000" font-family="sans-serif" font-size="14" lengthAdjust="spacingAndGlyphs" textLength="71" x="269" y="312.9873">Endpoint1</text><rect fill="#FEFECE" filter="url(#f1)" height="30.2969" style="stroke: #A80036; stroke-width: 1.5;" width="85" x="361" y="19.2969"/><text fill="#000000" font-family="sans-serif" font-size="14" lengthAdjust="spacingAndGlyphs" textLength="71" x="368" y="39.292">Endpoint2</text><rect fill="#FEFECE" filter="url(#f1)" height="30.2969" style="stroke: #A80036; stroke-width: 1.5;" width="85" x="361" y="292.9922"/><text fill="#000000" font-family="sans-serif" font-size="14" lengthAdjust="spacingAndGlyphs" textLength="71" x="368" y="312.9873">Endpoint2</text><rect fill="#FEFECE" filter="url(#f1)" height="30.2969" style="stroke: #A80036; stroke-width: 1.5;" width="85" x="460" y="19.2969"/><text fill="#000000" font-family="sans-serif" font-size="14" lengthAdjust="spacingAndGlyphs" textLength="71" x="467" y="39.292">Endpoint3</text><rect fill="#FEFECE" filter="url(#f1)" height="30.2969" style="stroke: #A80036; stroke-width: 1.5;" width="85" x="460" y="292.9922"/><text fill="#000000" font-family="sans-serif" font-size="14" lengthAdjust="spacingAndGlyphs" textLength="71" x="467" y="312.9873">Endpoint3</text><polygon fill="#A80036" points="185,66.5938,195,70.5938,185,74.5938,189,70.5938" style="stroke: #A80036; stroke-width: 1.0;"/><line style="stroke: #A80036; stroke-width: 1.0;" x1="70" x2="191" y1="70.5938" y2="70.5938"/><polygon fill="#A80036" points="294.5,80.5938,304.5,84.5938,294.5,88.5938,298.5,84.5938" style="stroke: #A80036; stroke-width: 1.0;"/><line style="stroke: #A80036; stroke-width: 1.0; stroke-dasharray: 2.0,2.0;" x1="197" x2="300.5" y1="84.5938" y2="84.5938"/><polygon fill="#A80036" points="208,94.5938,198,98.5938,208,102.5938,204,98.5938" style="stroke: #A80036; stroke-width: 1.0;"/><line style="stroke: #A80036; stroke-width: 1.0; stroke-dasharray: 2.0,2.0;" x1="202" x2="305.5" y1="98.5938" y2="98.5938"/><polygon fill="#A80036" points="294.5,108.5938,304.5,112.5938,294.5,116.5938,298.5,112.5938" style="stroke: #A80036; stroke-width: 1.0;"/><line style="stroke: #A80036; stroke-width: 1.0; stroke-dasharray: 2.0,2.0;" x1="197" x2="300.5" y1="112.5938" y2="112.5938"/><polygon fill="#A80036" points="393.5,122.5938,403.5,126.5938,393.5,130.5938,397.5,126.5938" style="stroke: #A80036; stroke-width: 1.0;"/><line style="stroke: #A80036; stroke-width: 1.0; stroke-dasharray: 2.0,2.0;" x1="197" x2="399.5" y1="126.5938" y2="126.5938"/><polygon fill="#A80036" points="208,136.5938,198,140.5938,208,144.5938,204,140.5938" style="stroke: #A80036; stroke-width: 1.0;"/><line style="stroke: #A80036; stroke-width: 1.0; stroke-dasharray: 2.0,2.0;" x1="202" x2="404.5" y1="140.5938" y2="140.5938"/><polygon fill="#A80036" points="492.5,150.5938,502.5,154.5938,492.5,158.5938,496.5,154.5938" style="stroke: #A80036; stroke-width: 1.0;"/><line style="stroke: #A80036; stroke-width: 1.0; stroke-dasharray: 2.0,2.0;" x1="197" x2="498.5" y1="154.5938" y2="154.5938"/><polygon fill="#A80036" points="208,164.5938,198,168.5938,208,172.5938,204,168.5938" style="stroke: #A80036; stroke-width: 1.0;"/><line style="stroke: #A80036; stroke-width: 1.0; stroke-dasharray: 2.0,2.0;" x1="202" x2="503.5" y1="168.5938" y2="168.5938"/><polygon fill="#A80036" points="81,178.5938,71,182.5938,81,186.5938,77,182.5938" style="stroke: #A80036; stroke-width: 1.0;"/><line style="stroke: #A80036; stroke-width: 1.0;" x1="75" x2="196" y1="182.5938" y2="182.5938"/><polygon fill="#FBFB77" filter="url(#f1)" points="14,195.5938,14,235.5938,253,235.5938,253,205.5938,243,195.5938,14,195.5938" style="stroke: #A80036; stroke-width: 1.0;"/><line style="stroke: #A80036; stroke-width: 1.0;" x1="243" x2="243" y1="195.5938" y2="205.5938"/><line style="stroke: #A80036; stroke-width: 1.0;" x1="253" x2="243" y1="205.5938" y2="205.5938"/><text fill="#000000" font-family="sans-serif" font-size="13" lengthAdjust="spacingAndGlyphs" textLength="88" x="21.5" y="212.6606">SCIM protocol</text><text fill="#000000" font-family="sans-serif" font-size="13" lengthAdjust="spacingAndGlyphs" textLength="211" x="21.5" y="227.7935">Dedicated port for each endpoint</text><polygon fill="#FBFB77" filter="url(#f1)" points="149,249.8594,149,274.8594,551,274.8594,551,259.8594,541,249.8594,149,249.8594" style="stroke: #A80036; stroke-width: 1.0;"/><line style="stroke: #A80036; stroke-width: 1.0;" x1="541" x2="541" y1="249.8594" y2="259.8594"/><line style="stroke: #A80036; stroke-width: 1.0;" x1="551" x2="541" y1="259.8594" y2="259.8594"/><text fill="#000000" font-family="sans-serif" font-size="13" lengthAdjust="spacingAndGlyphs" textLength="170" x="258.5" y="266.9263">Endpoint specific protocols</text></g></svg>