<?xml  version="1.0" encoding="us-ascii" standalone="no"?><svg xmlns="http://www.w3.org/2000/svg" xmlns:xlink="http://www.w3.org/1999/xlink" contentStyleType="text/css" height="419px" preserveAspectRatio="none" style="width:581px;height:419px;background:#FFFFFF;" version="1.1" viewBox="0 0 581 419" width="581px" zoomAndPan="magnify"><defs/><g><line style="stroke:#181818;stroke-width:0.5;stroke-dasharray:5.0,5.0;" x1="77" x2="77" y1="101.4844" y2="318.8828"/><line style="stroke:#181818;stroke-width:0.5;stroke-dasharray:5.0,5.0;" x1="216" x2="216" y1="101.4844" y2="318.8828"/><line style="stroke:#181818;stroke-width:0.5;stroke-dasharray:5.0,5.0;" x1="328" x2="328" y1="101.4844" y2="318.8828"/><line style="stroke:#181818;stroke-width:0.5;stroke-dasharray:5.0,5.0;" x1="427" x2="427" y1="101.4844" y2="318.8828"/><line style="stroke:#181818;stroke-width:0.5;stroke-dasharray:5.0,5.0;" x1="525" x2="525" y1="101.4844" y2="318.8828"/><rect fill="#F5DEB3" height="95.4844" rx="2.5" ry="2.5" style="stroke:#181818;stroke-width:0.5;" width="144" x="5" y="5"/><text fill="#000000" font-family="sans-serif" font-size="14" lengthAdjust="spacing" textLength="35" x="59.5" y="24.9951">Okta</text><text fill="#000000" font-family="sans-serif" font-size="14" lengthAdjust="spacing" textLength="92" x="31" y="41.292">SCIM Stream</text><text fill="#000000" font-family="sans-serif" font-size="14" lengthAdjust="spacing" textLength="122" x="16" y="57.5889">Identity Manager</text><text fill="#000000" font-family="sans-serif" font-size="14" lengthAdjust="spacing" textLength="130" x="12" y="73.8857">Microsoft Entra ID</text><text fill="#000000" font-family="sans-serif" font-size="14" lengthAdjust="spacing" textLength="33" x="60.5" y="90.1826">+++</text><rect fill="#F5DEB3" height="95.4844" rx="2.5" ry="2.5" style="stroke:#181818;stroke-width:0.5;" width="144" x="5" y="317.8828"/><text fill="#000000" font-family="sans-serif" font-size="14" lengthAdjust="spacing" textLength="35" x="59.5" y="337.8779">Okta</text><text fill="#000000" font-family="sans-serif" font-size="14" lengthAdjust="spacing" textLength="92" x="31" y="354.1748">SCIM Stream</text><text fill="#000000" font-family="sans-serif" font-size="14" lengthAdjust="spacing" textLength="122" x="16" y="370.4717">Identity Manager</text><text fill="#000000" font-family="sans-serif" font-size="14" lengthAdjust="spacing" textLength="130" x="12" y="386.7686">Microsoft Entra ID</text><text fill="#000000" font-family="sans-serif" font-size="14" lengthAdjust="spacing" textLength="33" x="60.5" y="403.0654">+++</text><rect fill="#90EE90" height="30.2969" rx="2.5" ry="2.5" style="stroke:#181818;stroke-width:0.5;" width="115" x="159" y="70.1875"/><text fill="#000000" font-family="sans-serif" font-size="14" lengthAdjust="spacing" textLength="101" x="166" y="90.1826">SCIM Gateway</text><rect fill="#90EE90" height="30.2969" rx="2.5" ry="2.5" style="stroke:#181818;stroke-width:0.5;" width="115" x="159" y="317.8828"/><text fill="#000000" font-family="sans-serif" font-size="14" lengthAdjust="spacing" textLength="101" x="166" y="337.8779">SCIM Gateway</text><rect fill="#E2E2F0" height="30.2969" rx="2.5" ry="2.5" style="stroke:#181818;stroke-width:0.5;" width="89" x="284" y="70.1875"/><text fill="#000000" font-family="sans-serif" font-size="14" lengthAdjust="spacing" textLength="75" x="291" y="90.1826">Endpoint1</text><rect fill="#E2E2F0" height="30.2969" rx="2.5" ry="2.5" style="stroke:#181818;stroke-width:0.5;" width="89" x="284" y="317.8828"/><text fill="#000000" font-family="sans-serif" font-size="14" lengthAdjust="spacing" textLength="75" x="291" y="337.8779">Endpoint1</text><rect fill="#E2E2F0" height="30.2969" rx="2.5" ry="2.5" style="stroke:#181818;stroke-width:0.5;" width="88" x="383" y="70.1875"/><text fill="#000000" font-family="sans-serif" font-size="14" lengthAdjust="spacing" textLength="74" x="390" y="90.1826">Endpoint2</text><rect fill="#E2E2F0" height="30.2969" rx="2.5" ry="2.5" style="stroke:#181818;stroke-width:0.5;" width="88" x="383" y="317.8828"/><text fill="#000000" font-family="sans-serif" font-size="14" lengthAdjust="spacing" textLength="74" x="390" y="337.8779">Endpoint2</text><rect fill="#E2E2F0" height="30.2969" rx="2.5" ry="2.5" style="stroke:#181818;stroke-width:0.5;" width="89" x="481" y="70.1875"/><text fill="#000000" font-family="sans-serif" font-size="14" lengthAdjust="spacing" textLength="75" x="488" y="90.1826">Endpoint3</text><rect fill="#E2E2F0" height="30.2969" rx="2.5" ry="2.5" style="stroke:#181818;stroke-width:0.5;" width="89" x="481" y="317.8828"/><text fill="#000000" font-family="sans-serif" font-size="14" lengthAdjust="spacing" textLength="75" x="488" y="337.8779">Endpoint3</text><polygon fill="#181818" points="204.5,113.4844,214.5,117.4844,204.5,121.4844,208.5,117.4844" style="stroke:#181818;stroke-width:1.0;"/><line style="stroke:#181818;stroke-width:1.0;" x1="77" x2="210.5" y1="117.4844" y2="117.4844"/><polygon fill="#181818" points="316.5,127.4844,326.5,131.4844,316.5,135.4844,320.5,131.4844" style="stroke:#181818;stroke-width:1.0;"/><line style="stroke:#181818;stroke-width:1.0;stroke-dasharray:2.0,2.0;" x1="216.5" x2="322.5" y1="131.4844" y2="131.4844"/><polygon fill="#181818" points="227.5,141.4844,217.5,145.4844,227.5,149.4844,223.5,145.4844" style="stroke:#181818;stroke-width:1.0;"/><line style="stroke:#181818;stroke-width:1.0;stroke-dasharray:2.0,2.0;" x1="221.5" x2="327.5" y1="145.4844" y2="145.4844"/><polygon fill="#181818" points="415,155.4844,425,159.4844,415,163.4844,419,159.4844" style="stroke:#181818;stroke-width:1.0;"/><line style="stroke:#181818;stroke-width:1.0;stroke-dasharray:2.0,2.0;" x1="216.5" x2="421" y1="159.4844" y2="159.4844"/><polygon fill="#181818" points="227.5,169.4844,217.5,173.4844,227.5,177.4844,223.5,173.4844" style="stroke:#181818;stroke-width:1.0;"/><line style="stroke:#181818;stroke-width:1.0;stroke-dasharray:2.0,2.0;" x1="221.5" x2="426" y1="173.4844" y2="173.4844"/><polygon fill="#181818" points="513.5,183.4844,523.5,187.4844,513.5,191.4844,517.5,187.4844" style="stroke:#181818;stroke-width:1.0;"/><line style="stroke:#181818;stroke-width:1.0;stroke-dasharray:2.0,2.0;" x1="216.5" x2="519.5" y1="187.4844" y2="187.4844"/><polygon fill="#181818" points="227.5,197.4844,217.5,201.4844,227.5,205.4844,223.5,201.4844" style="stroke:#181818;stroke-width:1.0;"/><line style="stroke:#181818;stroke-width:1.0;stroke-dasharray:2.0,2.0;" x1="221.5" x2="524.5" y1="201.4844" y2="201.4844"/><polygon fill="#181818" points="88,211.4844,78,215.4844,88,219.4844,84,215.4844" style="stroke:#181818;stroke-width:1.0;"/><line style="stroke:#181818;stroke-width:1.0;" x1="82" x2="215.5" y1="215.4844" y2="215.4844"/><path d="M14,228.4844 L14,268.4844 L278,268.4844 L278,238.4844 L268,228.4844 L14,228.4844 " fill="#FEFFDD" style="stroke:#181818;stroke-width:0.5;"/><path d="M268,228.4844 L268,238.4844 L278,238.4844 L268,228.4844 " fill="#FEFFDD" style="stroke:#181818;stroke-width:0.5;"/><text fill="#000000" font-family="sans-serif" font-size="13" lengthAdjust="spacing" textLength="86" x="35.5" y="245.5513">SCIM protocol</text><text fill="#000000" font-family="sans-serif" font-size="13" lengthAdjust="spacing" textLength="212" x="35.5" y="260.6841">Dedicated port for each endpoint</text><path d="M168,278.75 L168,303.75 L574,303.75 L574,288.75 L564,278.75 L168,278.75 " fill="#FEFFDD" style="stroke:#181818;stroke-width:0.5;"/><path d="M564,278.75 L564,288.75 L574,288.75 L564,278.75 " fill="#FEFFDD" style="stroke:#181818;stroke-width:0.5;"/><text fill="#000000" font-family="sans-serif" font-size="13" lengthAdjust="spacing" textLength="171" x="281" y="295.8169">Endpoint specific protocols</text></g></svg>