<?xml version="1.0" encoding="UTF-8" standalone="no"?><svg xmlns="http://www.w3.org/2000/svg" xmlns:xlink="http://www.w3.org/1999/xlink" contentScriptType="application/ecmascript" contentStyleType="text/css" height="369px" preserveAspectRatio="none" style="width:594px;height:369px;" version="1.1" viewBox="0 0 594 369" width="594px" zoomAndPan="magnify"><defs><filter height="300%" id="f1ka0zupirans4" width="300%" x="-1" y="-1"><feGaussianBlur result="blurOut" stdDeviation="2.0"/><feColorMatrix in="blurOut" result="blurOut2" type="matrix" values="0 0 0 0 0 0 0 0 0 0 0 0 0 0 0 0 0 0 .4 0"/><feOffset dx="4.0" dy="4.0" in="blurOut2" result="blurOut3"/><feBlend in="SourceGraphic" in2="blurOut3" mode="normal"/></filter></defs><g><line style="stroke: #A80036; stroke-width: 1.0; stroke-dasharray: 5.0,5.0;" x1="85" x2="85" y1="70.8906" y2="296.2891"/><line style="stroke: #A80036; stroke-width: 1.0; stroke-dasharray: 5.0,5.0;" x1="228" x2="228" y1="70.8906" y2="296.2891"/><line style="stroke: #A80036; stroke-width: 1.0; stroke-dasharray: 5.0,5.0;" x1="337" x2="337" y1="70.8906" y2="296.2891"/><line style="stroke: #A80036; stroke-width: 1.0; stroke-dasharray: 5.0,5.0;" x1="436" x2="436" y1="70.8906" y2="296.2891"/><line style="stroke: #A80036; stroke-width: 1.0; stroke-dasharray: 5.0,5.0;" x1="535" x2="535" y1="70.8906" y2="296.2891"/><rect fill="#FEFECE" filter="url(#f1ka0zupirans4)" height="62.8906" style="stroke: #A80036; stroke-width: 1.5;" width="151" x="8" y="3"/><text fill="#000000" font-family="sans-serif" font-size="14" lengthAdjust="spacingAndGlyphs" textLength="137" x="15" y="22.9951">CA Identity Manager</text><text fill="#000000" font-family="sans-serif" font-size="14" lengthAdjust="spacingAndGlyphs" textLength="107" x="30" y="39.292">Microsoft Azure</text><text fill="#000000" font-family="sans-serif" font-size="14" lengthAdjust="spacingAndGlyphs" textLength="36" x="65.5" y="55.5889">+++</text><rect fill="#FEFECE" filter="url(#f1ka0zupirans4)" height="62.8906" style="stroke: #A80036; stroke-width: 1.5;" width="151" x="8" y="295.2891"/><text fill="#000000" font-family="sans-serif" font-size="14" lengthAdjust="spacingAndGlyphs" textLength="137" x="15" y="315.2842">CA Identity Manager</text><text fill="#000000" font-family="sans-serif" font-size="14" lengthAdjust="spacingAndGlyphs" textLength="107" x="30" y="331.5811">Microsoft Azure</text><text fill="#000000" font-family="sans-serif" font-size="14" lengthAdjust="spacingAndGlyphs" textLength="36" x="65.5" y="347.8779">+++</text><rect fill="#90EE90" filter="url(#f1ka0zupirans4)" height="30.2969" style="stroke: #A80036; stroke-width: 1.5;" width="106" x="173" y="35.5938"/><text fill="#000000" font-family="sans-serif" font-size="14" lengthAdjust="spacingAndGlyphs" textLength="92" x="180" y="55.5889">ScimGateway</text><rect fill="#90EE90" filter="url(#f1ka0zupirans4)" height="30.2969" style="stroke: #A80036; stroke-width: 1.5;" width="106" x="173" y="295.2891"/><text fill="#000000" font-family="sans-serif" font-size="14" lengthAdjust="spacingAndGlyphs" textLength="92" x="180" y="315.2842">ScimGateway</text><rect fill="#FEFECE" filter="url(#f1ka0zupirans4)" height="30.2969" style="stroke: #A80036; stroke-width: 1.5;" width="85" x="293" y="35.5938"/><text fill="#000000" font-family="sans-serif" font-size="14" lengthAdjust="spacingAndGlyphs" textLength="71" x="300" y="55.5889">Endpoint1</text><rect fill="#FEFECE" filter="url(#f1ka0zupirans4)" height="30.2969" style="stroke: #A80036; stroke-width: 1.5;" width="85" x="293" y="295.2891"/><text fill="#000000" font-family="sans-serif" font-size="14" lengthAdjust="spacingAndGlyphs" textLength="71" x="300" y="315.2842">Endpoint1</text><rect fill="#FEFECE" filter="url(#f1ka0zupirans4)" height="30.2969" style="stroke: #A80036; stroke-width: 1.5;" width="85" x="392" y="35.5938"/><text fill="#000000" font-family="sans-serif" font-size="14" lengthAdjust="spacingAndGlyphs" textLength="71" x="399" y="55.5889">Endpoint2</text><rect fill="#FEFECE" filter="url(#f1ka0zupirans4)" height="30.2969" style="stroke: #A80036; stroke-width: 1.5;" width="85" x="392" y="295.2891"/><text fill="#000000" font-family="sans-serif" font-size="14" lengthAdjust="spacingAndGlyphs" textLength="71" x="399" y="315.2842">Endpoint2</text><rect fill="#FEFECE" filter="url(#f1ka0zupirans4)" height="30.2969" style="stroke: #A80036; stroke-width: 1.5;" width="85" x="491" y="35.5938"/><text fill="#000000" font-family="sans-serif" font-size="14" lengthAdjust="spacingAndGlyphs" textLength="71" x="498" y="55.5889">Endpoint3</text><rect fill="#FEFECE" filter="url(#f1ka0zupirans4)" height="30.2969" style="stroke: #A80036; stroke-width: 1.5;" width="85" x="491" y="295.2891"/><text fill="#000000" font-family="sans-serif" font-size="14" lengthAdjust="spacingAndGlyphs" textLength="71" x="498" y="315.2842">Endpoint3</text><polygon fill="#A80036" points="216,82.8906,226,86.8906,216,90.8906,220,86.8906" style="stroke: #A80036; stroke-width: 1.0;"/><line style="stroke: #A80036; stroke-width: 1.0;" x1="85.5" x2="222" y1="86.8906" y2="86.8906"/><polygon fill="#A80036" points="325.5,96.8906,335.5,100.8906,325.5,104.8906,329.5,100.8906" style="stroke: #A80036; stroke-width: 1.0;"/><line style="stroke: #A80036; stroke-width: 1.0; stroke-dasharray: 2.0,2.0;" x1="228" x2="331.5" y1="100.8906" y2="100.8906"/><polygon fill="#A80036" points="239,110.8906,229,114.8906,239,118.8906,235,114.8906" style="stroke: #A80036; stroke-width: 1.0;"/><line style="stroke: #A80036; stroke-width: 1.0; stroke-dasharray: 2.0,2.0;" x1="233" x2="336.5" y1="114.8906" y2="114.8906"/><polygon fill="#A80036" points="424.5,124.8906,434.5,128.8906,424.5,132.8906,428.5,128.8906" style="stroke: #A80036; stroke-width: 1.0;"/><line style="stroke: #A80036; stroke-width: 1.0; stroke-dasharray: 2.0,2.0;" x1="228" x2="430.5" y1="128.8906" y2="128.8906"/><polygon fill="#A80036" points="239,138.8906,229,142.8906,239,146.8906,235,142.8906" style="stroke: #A80036; stroke-width: 1.0;"/><line style="stroke: #A80036; stroke-width: 1.0; stroke-dasharray: 2.0,2.0;" x1="233" x2="435.5" y1="142.8906" y2="142.8906"/><polygon fill="#A80036" points="523.5,152.8906,533.5,156.8906,523.5,160.8906,527.5,156.8906" style="stroke: #A80036; stroke-width: 1.0;"/><line style="stroke: #A80036; stroke-width: 1.0; stroke-dasharray: 2.0,2.0;" x1="228" x2="529.5" y1="156.8906" y2="156.8906"/><polygon fill="#A80036" points="239,166.8906,229,170.8906,239,174.8906,235,170.8906" style="stroke: #A80036; stroke-width: 1.0;"/><line style="stroke: #A80036; stroke-width: 1.0; stroke-dasharray: 2.0,2.0;" x1="233" x2="534.5" y1="170.8906" y2="170.8906"/><polygon fill="#A80036" points="96.5,180.8906,86.5,184.8906,96.5,188.8906,92.5,184.8906" style="stroke: #A80036; stroke-width: 1.0;"/><line style="stroke: #A80036; stroke-width: 1.0;" x1="90.5" x2="227" y1="184.8906" y2="184.8906"/><path d="M21,197.8906 L21,237.8906 L291,237.8906 L291,207.8906 L281,197.8906 L21,197.8906 " fill="#FBFB77" filter="url(#f1ka0zupirans4)" style="stroke: #A80036; stroke-width: 1.0;"/><path d="M281,197.8906 L281,207.8906 L291,207.8906 L281,197.8906 " fill="#FBFB77" style="stroke: #A80036; stroke-width: 1.0;"/><text fill="#000000" font-family="sans-serif" font-size="13" lengthAdjust="spacingAndGlyphs" textLength="88" x="44" y="214.9575">SCIM protocol</text><text fill="#000000" font-family="sans-serif" font-size="13" lengthAdjust="spacingAndGlyphs" textLength="211" x="44" y="230.0903">Dedicated port for each endpoint</text><path d="M180,252.1563 L180,277.1563 L582,277.1563 L582,262.1563 L572,252.1563 L180,252.1563 " fill="#FBFB77" filter="url(#f1ka0zupirans4)" style="stroke: #A80036; stroke-width: 1.0;"/><path d="M572,252.1563 L572,262.1563 L582,262.1563 L572,252.1563 " fill="#FBFB77" style="stroke: #A80036; stroke-width: 1.0;"/><text fill="#000000" font-family="sans-serif" font-size="13" lengthAdjust="spacingAndGlyphs" textLength="170" x="289.5" y="269.2231">Endpoint specific protocols</text><!--
@startuml
participant "CA Identity Manager\nMicrosoft Azure\n+++" as P
participant ScimGateway #lightgreen
P -> ScimGateway :
ScimGateway - -> Endpoint1:
Endpoint1 - -> ScimGateway:
ScimGateway - -> Endpoint2:
Endpoint2 - -> ScimGateway:
ScimGateway - -> Endpoint3:
Endpoint3 - -> ScimGateway:
ScimGateway -> P
Note over P,ScimGateway: SCIM protocol\nDedicated port for each endpoint
Note over ScimGateway,Endpoint3: Endpoint specific protocols
@enduml

PlantUML version 1.2018.01(Sun Jan 28 18:08:22 UTC 2018)
(GPL source distribution)
Java Runtime: Java(TM) SE Runtime Environment
JVM: Java HotSpot(TM) 64-Bit Server VM
Java Version: 1.7.0_25-b15
Operating System: Linux
Default Encoding: UTF-8
Language: en
Country: US
--></g></svg>