<?xml version="1.0" encoding="us-ascii" standalone="no"?><svg xmlns="http://www.w3.org/2000/svg" xmlns:xlink="http://www.w3.org/1999/xlink" contentStyleType="text/css" height="386px" preserveAspectRatio="none" style="width:581px;height:386px;background:#FFFFFF;" version="1.1" viewBox="0 0 581 386" width="581px" zoomAndPan="magnify"><defs/><g><line style="stroke:#181818;stroke-width:0.5;stroke-dasharray:5.0,5.0;" x1="77" x2="77" y1="85.1875" y2="302.5859"/><line style="stroke:#181818;stroke-width:0.5;stroke-dasharray:5.0,5.0;" x1="216" x2="216" y1="85.1875" y2="302.5859"/><line style="stroke:#181818;stroke-width:0.5;stroke-dasharray:5.0,5.0;" x1="328" x2="328" y1="85.1875" y2="302.5859"/><line style="stroke:#181818;stroke-width:0.5;stroke-dasharray:5.0,5.0;" x1="427" x2="427" y1="85.1875" y2="302.5859"/><line style="stroke:#181818;stroke-width:0.5;stroke-dasharray:5.0,5.0;" x1="525" x2="525" y1="85.1875" y2="302.5859"/><rect fill="#F5DEB3" height="79.1875" rx="2.5" ry="2.5" style="stroke:#181818;stroke-width:0.5;" width="144" x="5" y="5"/><text fill="#000000" font-family="sans-serif" font-size="14" lengthAdjust="spacing" textLength="35" x="59.5" y="24.9951">Okta</text><text fill="#000000" font-family="sans-serif" font-size="14" lengthAdjust="spacing" textLength="122" x="16" y="41.292">Identity Manager</text><text fill="#000000" font-family="sans-serif" font-size="14" lengthAdjust="spacing" textLength="130" x="12" y="57.5889">Microsoft Entra ID</text><text fill="#000000" font-family="sans-serif" font-size="14" lengthAdjust="spacing" textLength="33" x="60.5" y="73.8857">+++</text><rect fill="#F5DEB3" height="79.1875" rx="2.5" ry="2.5" style="stroke:#181818;stroke-width:0.5;" width="144" x="5" y="301.5859"/><text fill="#000000" font-family="sans-serif" font-size="14" lengthAdjust="spacing" textLength="35" x="59.5" y="321.5811">Okta</text><text fill="#000000" font-family="sans-serif" font-size="14" lengthAdjust="spacing" textLength="122" x="16" y="337.8779">Identity Manager</text><text fill="#000000" font-family="sans-serif" font-size="14" lengthAdjust="spacing" textLength="130" x="12" y="354.1748">Microsoft Entra ID</text><text fill="#000000" font-family="sans-serif" font-size="14" lengthAdjust="spacing" textLength="33" x="60.5" y="370.4717">+++</text><rect fill="#90EE90" height="30.2969" rx="2.5" ry="2.5" style="stroke:#181818;stroke-width:0.5;" width="115" x="159" y="53.8906"/><text fill="#000000" font-family="sans-serif" font-size="14" lengthAdjust="spacing" textLength="101" x="166" y="73.8857">SCIM Gateway</text><rect fill="#90EE90" height="30.2969" rx="2.5" ry="2.5" style="stroke:#181818;stroke-width:0.5;" width="115" x="159" y="301.5859"/><text fill="#000000" font-family="sans-serif" font-size="14" lengthAdjust="spacing" textLength="101" x="166" y="321.5811">SCIM Gateway</text><rect fill="#E2E2F0" height="30.2969" rx="2.5" ry="2.5" style="stroke:#181818;stroke-width:0.5;" width="89" x="284" y="53.8906"/><text fill="#000000" font-family="sans-serif" font-size="14" lengthAdjust="spacing" textLength="75" x="291" y="73.8857">Endpoint1</text><rect fill="#E2E2F0" height="30.2969" rx="2.5" ry="2.5" style="stroke:#181818;stroke-width:0.5;" width="89" x="284" y="301.5859"/><text fill="#000000" font-family="sans-serif" font-size="14" lengthAdjust="spacing" textLength="75" x="291" y="321.5811">Endpoint1</text><rect fill="#E2E2F0" height="30.2969" rx="2.5" ry="2.5" style="stroke:#181818;stroke-width:0.5;" width="88" x="383" y="53.8906"/><text fill="#000000" font-family="sans-serif" font-size="14" lengthAdjust="spacing" textLength="74" x="390" y="73.8857">Endpoint2</text><rect fill="#E2E2F0" height="30.2969" rx="2.5" ry="2.5" style="stroke:#181818;stroke-width:0.5;" width="88" x="383" y="301.5859"/><text fill="#000000" font-family="sans-serif" font-size="14" lengthAdjust="spacing" textLength="74" x="390" y="321.5811">Endpoint2</text><rect fill="#E2E2F0" height="30.2969" rx="2.5" ry="2.5" style="stroke:#181818;stroke-width:0.5;" width="89" x="481" y="53.8906"/><text fill="#000000" font-family="sans-serif" font-size="14" lengthAdjust="spacing" textLength="75" x="488" y="73.8857">Endpoint3</text><rect fill="#E2E2F0" height="30.2969" rx="2.5" ry="2.5" style="stroke:#181818;stroke-width:0.5;" width="89" x="481" y="301.5859"/><text fill="#000000" font-family="sans-serif" font-size="14" lengthAdjust="spacing" textLength="75" x="488" y="321.5811">Endpoint3</text><polygon fill="#181818" points="204.5,97.1875,214.5,101.1875,204.5,105.1875,208.5,101.1875" style="stroke:#181818;stroke-width:1.0;"/><line style="stroke:#181818;stroke-width:1.0;" x1="77" x2="210.5" y1="101.1875" y2="101.1875"/><polygon fill="#181818" points="316.5,111.1875,326.5,115.1875,316.5,119.1875,320.5,115.1875" style="stroke:#181818;stroke-width:1.0;"/><line style="stroke:#181818;stroke-width:1.0;stroke-dasharray:2.0,2.0;" x1="216.5" x2="322.5" y1="115.1875" y2="115.1875"/><polygon fill="#181818" points="227.5,125.1875,217.5,129.1875,227.5,133.1875,223.5,129.1875" style="stroke:#181818;stroke-width:1.0;"/><line style="stroke:#181818;stroke-width:1.0;stroke-dasharray:2.0,2.0;" x1="221.5" x2="327.5" y1="129.1875" y2="129.1875"/><polygon fill="#181818" points="415,139.1875,425,143.1875,415,147.1875,419,143.1875" style="stroke:#181818;stroke-width:1.0;"/><line style="stroke:#181818;stroke-width:1.0;stroke-dasharray:2.0,2.0;" x1="216.5" x2="421" y1="143.1875" y2="143.1875"/><polygon fill="#181818" points="227.5,153.1875,217.5,157.1875,227.5,161.1875,223.5,157.1875" style="stroke:#181818;stroke-width:1.0;"/><line style="stroke:#181818;stroke-width:1.0;stroke-dasharray:2.0,2.0;" x1="221.5" x2="426" y1="157.1875" y2="157.1875"/><polygon fill="#181818" points="513.5,167.1875,523.5,171.1875,513.5,175.1875,517.5,171.1875" style="stroke:#181818;stroke-width:1.0;"/><line style="stroke:#181818;stroke-width:1.0;stroke-dasharray:2.0,2.0;" x1="216.5" x2="519.5" y1="171.1875" y2="171.1875"/><polygon fill="#181818" points="227.5,181.1875,217.5,185.1875,227.5,189.1875,223.5,185.1875" style="stroke:#181818;stroke-width:1.0;"/><line style="stroke:#181818;stroke-width:1.0;stroke-dasharray:2.0,2.0;" x1="221.5" x2="524.5" y1="185.1875" y2="185.1875"/><polygon fill="#181818" points="88,195.1875,78,199.1875,88,203.1875,84,199.1875" style="stroke:#181818;stroke-width:1.0;"/><line style="stroke:#181818;stroke-width:1.0;" x1="82" x2="215.5" y1="199.1875" y2="199.1875"/><path d="M14,212.1875 L14,252.1875 L278,252.1875 L278,222.1875 L268,212.1875 L14,212.1875 " fill="#FEFFDD" style="stroke:#181818;stroke-width:0.5;"/><path d="M268,212.1875 L268,222.1875 L278,222.1875 L268,212.1875 " fill="#FEFFDD" style="stroke:#181818;stroke-width:0.5;"/><text fill="#000000" font-family="sans-serif" font-size="13" lengthAdjust="spacing" textLength="86" x="35.5" y="229.2544">SCIM protocol</text><text fill="#000000" font-family="sans-serif" font-size="13" lengthAdjust="spacing" textLength="212" x="35.5" y="244.3872">Dedicated port for each endpoint</text><path d="M168,262.4531 L168,287.4531 L574,287.4531 L574,272.4531 L564,262.4531 L168,262.4531 " fill="#FEFFDD" style="stroke:#181818;stroke-width:0.5;"/><path d="M564,262.4531 L564,272.4531 L574,272.4531 L564,262.4531 " fill="#FEFFDD" style="stroke:#181818;stroke-width:0.5;"/><text fill="#000000" font-family="sans-serif" font-size="13" lengthAdjust="spacing" textLength="171" x="281" y="279.52">Endpoint specific protocols</text><!--SRC=[bOunRy9038Nt-nLFOGmCXOs1fQ0gGqgahbciYvESGFRfOXNnxq6eIY13rMwst_lUSwHamOT8OiYE9wDQYeR5WbrHab37gPOo-AI3jeQ3M28K-rhoFCz00oeiBZsJkVYSzFLUbFWWumjTCopEeUkjIypYAgnsStthPeVLtNEG9ceGUzkwSNm8hzvVsVN4hl_BRYPsyoTsXyfzgZ7qcnEgvSoFnngJcdezrxBd9lYxs21gChIQmEHxy4_fKzPhqdBwS7mMGsGVsk37Wk46]--></g></svg>