<?xml version="1.0" encoding="UTF-8" standalone="yes"?><svg xmlns="http://www.w3.org/2000/svg" xmlns:xlink="http://www.w3.org/1999/xlink" height="541px" style="width:620px;height:541px;" version="1.1" viewBox="0 0 620 541" width="620px"><defs><filter height="300%" id="f1" width="300%" x="-1" y="-1"><feGaussianBlur result="blurOut" stdDeviation="2.0"/><feColorMatrix in="blurOut" result="blurOut2" type="matrix" values="0 0 0 0 0 0 0 0 0 0 0 0 0 0 0 0 0 0 .4 0"/><feOffset dx="4.0" dy="4.0" in="blurOut2" result="blurOut3"/><feBlend in="SourceGraphic" in2="blurOut3" mode="normal"/></filter></defs><g><rect fill="#D2B48C" filter="url(#f1)" height="28" style="stroke: #808080; stroke-width: 1.0;" width="10" x="326" y="151.8594"/><rect fill="#D2B48C" filter="url(#f1)" height="28" style="stroke: #808080; stroke-width: 1.0;" width="10" x="326" y="223.9922"/><rect fill="#D2B48C" filter="url(#f1)" height="28" style="stroke: #808080; stroke-width: 1.0;" width="10" x="326" y="442.7891"/><line style="stroke: #808080; stroke-width: 1.0; stroke-dasharray: 5.0,5.0;" x1="33" x2="33" y1="54.5938" y2="540.3203"/><line style="stroke: #808080; stroke-width: 1.0; stroke-dasharray: 5.0,5.0;" x1="129.5" x2="129.5" y1="54.5938" y2="540.3203"/><line style="stroke: #808080; stroke-width: 1.0; stroke-dasharray: 5.0,5.0;" x1="330.5" x2="330.5" y1="54.5938" y2="540.3203"/><line style="stroke: #808080; stroke-width: 1.0; stroke-dasharray: 5.0,5.0;" x1="534" x2="534" y1="54.5938" y2="540.3203"/><rect fill="#FFFFFF" filter="url(#f1)" height="30.2969" style="stroke: #808080; stroke-width: 1.5;" width="46" x="8" y="19.2969"/><text fill="#000000" font-family="sans-serif" font-size="14" lengthAdjust="spacingAndGlyphs" textLength="32" x="15" y="39.292">User</text><rect fill="#FFFFFF" filter="url(#f1)" height="46.5938" style="stroke: #808080; stroke-width: 1.5;" width="117" x="69.5" y="3"/><text fill="#000000" font-family="sans-serif" font-size="14" lengthAdjust="spacingAndGlyphs" textLength="97" x="79.5" y="22.9951">SM WebAgent</text><text fill="#000000" font-family="sans-serif" font-size="14" lengthAdjust="spacingAndGlyphs" textLength="103" x="76.5" y="39.292">(two-factor.fcc)</text><rect fill="#FFFFFF" filter="url(#f1)" height="46.5938" style="stroke: #808080; stroke-width: 1.5;" width="133" x="262.5" y="3"/><text fill="#000000" font-family="sans-serif" font-size="14" lengthAdjust="spacingAndGlyphs" textLength="108" x="275" y="22.9951">SM PolicyServer</text><text fill="#000000" font-family="sans-serif" font-size="14" lengthAdjust="spacingAndGlyphs" textLength="119" x="269.5" y="39.292">(two-factor-code)</text><rect fill="#FFFFFF" filter="url(#f1)" height="30.2969" style="stroke: #808080; stroke-width: 1.5;" width="158" x="453" y="19.2969"/><text fill="#000000" font-family="sans-serif" font-size="14" lengthAdjust="spacingAndGlyphs" textLength="144" x="460" y="39.292">SMS Sender Provider</text><rect fill="#D2B48C" filter="url(#f1)" height="28" style="stroke: #808080; stroke-width: 1.0;" width="10" x="326" y="151.8594"/><rect fill="#D2B48C" filter="url(#f1)" height="28" style="stroke: #808080; stroke-width: 1.0;" width="10" x="326" y="223.9922"/><rect fill="#D2B48C" filter="url(#f1)" height="28" style="stroke: #808080; stroke-width: 1.0;" width="10" x="326" y="442.7891"/><polygon fill="#2F4F4F" points="44,81.5938,34,85.5938,44,89.5938,40,85.5938" style="stroke: #2F4F4F; stroke-width: 1.0;"/><line style="stroke: #2F4F4F; stroke-width: 1.0;" x1="38" x2="129" y1="85.5938" y2="85.5938"/><text fill="#000000" font-family="sans-serif" font-size="13" lengthAdjust="spacingAndGlyphs" textLength="73" x="50" y="80.6606">Logon form</text><polygon fill="#2F4F4F" points="319,110.7266,329,114.7266,319,118.7266,323,114.7266" style="stroke: #2F4F4F; stroke-width: 1.0;"/><line style="stroke: #2F4F4F; stroke-width: 1.0;" x1="33" x2="325" y1="114.7266" y2="114.7266"/><text fill="#000000" font-family="sans-serif" font-size="13" lengthAdjust="spacingAndGlyphs" textLength="168" x="40" y="109.7935">userid/password (step #1)</text><line style="stroke: #2F4F4F; stroke-width: 1.0;" x1="336" x2="378" y1="143.9922" y2="143.9922"/><line style="stroke: #2F4F4F; stroke-width: 1.0;" x1="378" x2="378" y1="143.9922" y2="156.9922"/><line style="stroke: #2F4F4F; stroke-width: 1.0;" x1="337" x2="378" y1="156.9922" y2="156.9922"/><polygon fill="#2F4F4F" points="347,152.9922,337,156.9922,347,160.9922,343,156.9922" style="stroke: #2F4F4F; stroke-width: 1.0;"/><text fill="#000000" font-family="sans-serif" font-size="13" lengthAdjust="spacingAndGlyphs" textLength="92" x="343" y="138.9263">authentication</text><line style="stroke: #2F4F4F; stroke-width: 1.0;" x1="336" x2="378" y1="216.125" y2="216.125"/><line style="stroke: #2F4F4F; stroke-width: 1.0;" x1="378" x2="378" y1="216.125" y2="229.125"/><line style="stroke: #2F4F4F; stroke-width: 1.0;" x1="337" x2="378" y1="229.125" y2="229.125"/><polygon fill="#2F4F4F" points="347,225.125,337,229.125,347,233.125,343,229.125" style="stroke: #2F4F4F; stroke-width: 1.0;"/><text fill="#000000" font-family="sans-serif" font-size="13" lengthAdjust="spacingAndGlyphs" textLength="70" x="343" y="211.0591">create OTP</text><polygon fill="#2F4F4F" points="522,284.125,532,288.125,522,292.125,526,288.125" style="stroke: #2F4F4F; stroke-width: 1.0;"/><line style="stroke: #2F4F4F; stroke-width: 1.0;" x1="331" x2="528" y1="288.125" y2="288.125"/><text fill="#000000" font-family="sans-serif" font-size="13" lengthAdjust="spacingAndGlyphs" textLength="179" x="338" y="283.1919">Users phone number + OTP</text><polygon fill="#2F4F4F" points="44,328.2578,34,332.2578,44,336.2578,40,332.2578" style="stroke: #2F4F4F; stroke-width: 1.0;"/><line style="stroke: #2F4F4F; stroke-width: 1.0;" x1="38" x2="330" y1="332.2578" y2="332.2578"/><text fill="#000000" font-family="sans-serif" font-size="13" lengthAdjust="spacingAndGlyphs" textLength="120" x="50" y="312.3247">smauthreason=30</text><text fill="#000000" font-family="sans-serif" font-size="13" lengthAdjust="spacingAndGlyphs" textLength="274" x="50" y="327.4575">SMUSRMSG cookie (userid/error-message)</text><polygon fill="#2F4F4F" points="44,357.5234,34,361.5234,44,365.5234,40,361.5234" style="stroke: #2F4F4F; stroke-width: 1.0;"/><line style="stroke: #2F4F4F; stroke-width: 1.0;" x1="38" x2="533" y1="361.5234" y2="361.5234"/><text fill="#000000" font-family="sans-serif" font-size="13" lengthAdjust="spacingAndGlyphs" textLength="219" x="50" y="356.5903">SMS with OTP sent to users phone</text><polygon fill="#2F4F4F" points="319,386.6563,329,390.6563,319,394.6563,323,390.6563" style="stroke: #2F4F4F; stroke-width: 1.0;"/><line style="stroke: #2F4F4F; stroke-width: 1.0;" x1="33" x2="325" y1="390.6563" y2="390.6563"/><text fill="#000000" font-family="sans-serif" font-size="13" lengthAdjust="spacingAndGlyphs" textLength="133" x="40" y="385.7231">userid/OTP (step #2)</text><line style="stroke: #2F4F4F; stroke-width: 1.0;" x1="336" x2="378" y1="435.0547" y2="435.0547"/><line style="stroke: #2F4F4F; stroke-width: 1.0;" x1="378" x2="378" y1="435.0547" y2="448.0547"/><line style="stroke: #2F4F4F; stroke-width: 1.0;" x1="337" x2="378" y1="448.0547" y2="448.0547"/><polygon fill="#2F4F4F" points="347,444.0547,337,448.0547,347,452.0547,343,448.0547" style="stroke: #2F4F4F; stroke-width: 1.0;"/><text fill="#000000" font-family="sans-serif" font-size="13" lengthAdjust="spacingAndGlyphs" textLength="98" x="343" y="414.856">OTP verification</text><text fill="#000000" font-family="sans-serif" font-size="13" lengthAdjust="spacingAndGlyphs" textLength="154" x="343" y="429.9888">(including retry/timeout)</text><polygon fill="#2F4F4F" points="44,518.0547,34,522.0547,44,526.0547,40,522.0547" style="stroke: #2F4F4F; stroke-width: 1.0;"/><line style="stroke: #2F4F4F; stroke-width: 1.0;" x1="38" x2="330" y1="522.0547" y2="522.0547"/><text fill="#000000" font-family="sans-serif" font-size="13" lengthAdjust="spacingAndGlyphs" textLength="132" x="50" y="502.1216">Authentication OK or</text><text fill="#000000" font-family="sans-serif" font-size="13" lengthAdjust="spacingAndGlyphs" textLength="274" x="50" y="517.2544">SMUSRMSG cookie (userid/error-message)</text></g></svg>