<?xml version="1.0" encoding="UTF-8" standalone="yes"?><svg xmlns="http://www.w3.org/2000/svg" xmlns:xlink="http://www.w3.org/1999/xlink" height="525px" style="width:590px;height:525px;" version="1.1" viewBox="0 0 590 525" width="590px"><defs><filter height="300%" id="f1" width="300%" x="-1" y="-1"><feGaussianBlur result="blurOut" stdDeviation="2.0"/><feColorMatrix in="blurOut" result="blurOut2" type="matrix" values="0 0 0 0 0 0 0 0 0 0 0 0 0 0 0 0 0 0 .4 0"/><feOffset dx="4.0" dy="4.0" in="blurOut2" result="blurOut3"/><feBlend in="SourceGraphic" in2="blurOut3" mode="normal"/></filter></defs><g><rect fill="#D2B48C" filter="url(#f1)" height="28" style="stroke: #808080; stroke-width: 1.0;" width="10" x="326" y="135.5625"/><rect fill="#D2B48C" filter="url(#f1)" height="28" style="stroke: #808080; stroke-width: 1.0;" width="10" x="326" y="207.6953"/><rect fill="#D2B48C" filter="url(#f1)" height="28" style="stroke: #808080; stroke-width: 1.0;" width="10" x="326" y="426.4922"/><line style="stroke: #808080; stroke-width: 1.0; stroke-dasharray: 5.0,5.0;" x1="33" x2="33" y1="38.2969" y2="524.0234"/><line style="stroke: #808080; stroke-width: 1.0; stroke-dasharray: 5.0,5.0;" x1="129.5" x2="129.5" y1="38.2969" y2="524.0234"/><line style="stroke: #808080; stroke-width: 1.0; stroke-dasharray: 5.0,5.0;" x1="331" x2="331" y1="38.2969" y2="524.0234"/><line style="stroke: #808080; stroke-width: 1.0; stroke-dasharray: 5.0,5.0;" x1="534" x2="534" y1="38.2969" y2="524.0234"/><rect fill="#FFFFFF" filter="url(#f1)" height="30.2969" style="stroke: #808080; stroke-width: 1.5;" width="46" x="8" y="3"/><text fill="#000000" font-family="sans-serif" font-size="14" lengthAdjust="spacingAndGlyphs" textLength="32" x="15" y="22.9951">User</text><rect fill="#FFFFFF" filter="url(#f1)" height="30.2969" style="stroke: #808080; stroke-width: 1.5;" width="111" x="72.5" y="3"/><text fill="#000000" font-family="sans-serif" font-size="14" lengthAdjust="spacingAndGlyphs" textLength="97" x="79.5" y="22.9951">SM WebAgent</text><rect fill="#FFFFFF" filter="url(#f1)" height="30.2969" style="stroke: #808080; stroke-width: 1.5;" width="122" x="268" y="3"/><text fill="#000000" font-family="sans-serif" font-size="14" lengthAdjust="spacingAndGlyphs" textLength="108" x="275" y="22.9951">SM PolicyServer</text><rect fill="#FFFFFF" filter="url(#f1)" height="30.2969" style="stroke: #808080; stroke-width: 1.5;" width="98" x="483" y="3"/><text fill="#000000" font-family="sans-serif" font-size="14" lengthAdjust="spacingAndGlyphs" textLength="84" x="490" y="22.9951">SMS Sender</text><rect fill="#D2B48C" filter="url(#f1)" height="28" style="stroke: #808080; stroke-width: 1.0;" width="10" x="326" y="135.5625"/><rect fill="#D2B48C" filter="url(#f1)" height="28" style="stroke: #808080; stroke-width: 1.0;" width="10" x="326" y="207.6953"/><rect fill="#D2B48C" filter="url(#f1)" height="28" style="stroke: #808080; stroke-width: 1.0;" width="10" x="326" y="426.4922"/><polygon fill="#2F4F4F" points="44,65.2969,34,69.2969,44,73.2969,40,69.2969" style="stroke: #2F4F4F; stroke-width: 1.0;"/><line style="stroke: #2F4F4F; stroke-width: 1.0;" x1="38" x2="129" y1="69.2969" y2="69.2969"/><text fill="#000000" font-family="sans-serif" font-size="13" lengthAdjust="spacingAndGlyphs" textLength="73" x="50" y="64.3638">Logon form</text><polygon fill="#2F4F4F" points="319,94.4297,329,98.4297,319,102.4297,323,98.4297" style="stroke: #2F4F4F; stroke-width: 1.0;"/><line style="stroke: #2F4F4F; stroke-width: 1.0;" x1="33" x2="325" y1="98.4297" y2="98.4297"/><text fill="#000000" font-family="sans-serif" font-size="13" lengthAdjust="spacingAndGlyphs" textLength="194" x="40" y="93.4966">username/password (step #1)</text><line style="stroke: #2F4F4F; stroke-width: 1.0;" x1="336" x2="378" y1="127.6953" y2="127.6953"/><line style="stroke: #2F4F4F; stroke-width: 1.0;" x1="378" x2="378" y1="127.6953" y2="140.6953"/><line style="stroke: #2F4F4F; stroke-width: 1.0;" x1="337" x2="378" y1="140.6953" y2="140.6953"/><polygon fill="#2F4F4F" points="347,136.6953,337,140.6953,347,144.6953,343,140.6953" style="stroke: #2F4F4F; stroke-width: 1.0;"/><text fill="#000000" font-family="sans-serif" font-size="13" lengthAdjust="spacingAndGlyphs" textLength="92" x="343" y="122.6294">authentication</text><line style="stroke: #2F4F4F; stroke-width: 1.0;" x1="336" x2="378" y1="199.8281" y2="199.8281"/><line style="stroke: #2F4F4F; stroke-width: 1.0;" x1="378" x2="378" y1="199.8281" y2="212.8281"/><line style="stroke: #2F4F4F; stroke-width: 1.0;" x1="337" x2="378" y1="212.8281" y2="212.8281"/><polygon fill="#2F4F4F" points="347,208.8281,337,212.8281,347,216.8281,343,212.8281" style="stroke: #2F4F4F; stroke-width: 1.0;"/><text fill="#000000" font-family="sans-serif" font-size="13" lengthAdjust="spacingAndGlyphs" textLength="70" x="343" y="194.7622">create OTP</text><polygon fill="#2F4F4F" points="522,267.8281,532,271.8281,522,275.8281,526,271.8281" style="stroke: #2F4F4F; stroke-width: 1.0;"/><line style="stroke: #2F4F4F; stroke-width: 1.0;" x1="331" x2="528" y1="271.8281" y2="271.8281"/><text fill="#000000" font-family="sans-serif" font-size="13" lengthAdjust="spacingAndGlyphs" textLength="179" x="338" y="266.895">Users phone number + OTP</text><polygon fill="#2F4F4F" points="44,311.9609,34,315.9609,44,319.9609,40,315.9609" style="stroke: #2F4F4F; stroke-width: 1.0;"/><line style="stroke: #2F4F4F; stroke-width: 1.0;" x1="38" x2="330" y1="315.9609" y2="315.9609"/><text fill="#000000" font-family="sans-serif" font-size="13" lengthAdjust="spacingAndGlyphs" textLength="120" x="50" y="296.0278">smauthreason=30</text><text fill="#000000" font-family="sans-serif" font-size="13" lengthAdjust="spacingAndGlyphs" textLength="274" x="50" y="311.1606">SMUSRMSG cookie (userid/error-message)</text><polygon fill="#2F4F4F" points="44,341.2266,34,345.2266,44,349.2266,40,345.2266" style="stroke: #2F4F4F; stroke-width: 1.0;"/><line style="stroke: #2F4F4F; stroke-width: 1.0;" x1="38" x2="533" y1="345.2266" y2="345.2266"/><text fill="#000000" font-family="sans-serif" font-size="13" lengthAdjust="spacingAndGlyphs" textLength="219" x="50" y="340.2935">SMS with OTP sent to users phone</text><polygon fill="#2F4F4F" points="319,370.3594,329,374.3594,319,378.3594,323,374.3594" style="stroke: #2F4F4F; stroke-width: 1.0;"/><line style="stroke: #2F4F4F; stroke-width: 1.0;" x1="33" x2="325" y1="374.3594" y2="374.3594"/><text fill="#000000" font-family="sans-serif" font-size="13" lengthAdjust="spacingAndGlyphs" textLength="90" x="40" y="369.4263">OTP (step #2)</text><line style="stroke: #2F4F4F; stroke-width: 1.0;" x1="336" x2="378" y1="418.7578" y2="418.7578"/><line style="stroke: #2F4F4F; stroke-width: 1.0;" x1="378" x2="378" y1="418.7578" y2="431.7578"/><line style="stroke: #2F4F4F; stroke-width: 1.0;" x1="337" x2="378" y1="431.7578" y2="431.7578"/><polygon fill="#2F4F4F" points="347,427.7578,337,431.7578,347,435.7578,343,431.7578" style="stroke: #2F4F4F; stroke-width: 1.0;"/><text fill="#000000" font-family="sans-serif" font-size="13" lengthAdjust="spacingAndGlyphs" textLength="98" x="343" y="398.5591">OTP verification</text><text fill="#000000" font-family="sans-serif" font-size="13" lengthAdjust="spacingAndGlyphs" textLength="154" x="343" y="413.6919">(including retry/timeout)</text><polygon fill="#2F4F4F" points="44,501.7578,34,505.7578,44,509.7578,40,505.7578" style="stroke: #2F4F4F; stroke-width: 1.0;"/><line style="stroke: #2F4F4F; stroke-width: 1.0;" x1="38" x2="330" y1="505.7578" y2="505.7578"/><text fill="#000000" font-family="sans-serif" font-size="13" lengthAdjust="spacingAndGlyphs" textLength="132" x="50" y="485.8247">Authentication OK or</text><text fill="#000000" font-family="sans-serif" font-size="13" lengthAdjust="spacingAndGlyphs" textLength="274" x="50" y="500.9575">SMUSRMSG cookie (userid/error-message)</text></g></svg>