<?xml version="1.0" encoding="UTF-8" standalone="yes"?><svg xmlns="http://www.w3.org/2000/svg" xmlns:xlink="http://www.w3.org/1999/xlink" height="552px" style="width:561px;height:552px;" version="1.1" viewBox="0 0 561 552" width="561px"><defs><filter height="300%" id="f1" width="300%" x="-1" y="-1"><feGaussianBlur result="blurOut" stdDeviation="2.0"/><feColorMatrix in="blurOut" result="blurOut2" type="matrix" values="0 0 0 0 0 0 0 0 0 0 0 0 0 0 0 0 0 0 .4 0"/><feOffset dx="4.0" dy="4.0" in="blurOut2" result="blurOut3"/><feBlend in="SourceGraphic" in2="blurOut3" mode="normal"/></filter></defs><g><rect fill="#D3D3D3" filter="url(#f1)" height="494.5938" style="stroke: #808080; stroke-width: 1.0;" width="10" x="82" y="48.2969"/><rect fill="#D3D3D3" filter="url(#f1)" height="464.4609" style="stroke: #808080; stroke-width: 1.0;" width="10" x="257" y="69.2969"/><rect fill="#D2B48C" filter="url(#f1)" height="28" style="stroke: #808080; stroke-width: 1.0;" width="10" x="262" y="121.4297"/><rect fill="#D2B48C" filter="url(#f1)" height="28" style="stroke: #808080; stroke-width: 1.0;" width="10" x="262" y="469.4922"/><rect fill="#D3D3D3" filter="url(#f1)" height="231.6641" style="stroke: #808080; stroke-width: 1.0;" width="10" x="422" y="185.6953"/><rect fill="#D2B48C" filter="url(#f1)" height="28" style="stroke: #808080; stroke-width: 1.0;" width="10" x="427" y="222.8281"/><rect fill="#D2B48C" filter="url(#f1)" height="28" style="stroke: #808080; stroke-width: 1.0;" width="10" x="427" y="353.2266"/><rect fill="#D3D3D3" filter="url(#f1)" height="29.1328" style="stroke: #808080; stroke-width: 1.0;" width="10" x="526" y="286.9609"/><line style="stroke: #808080; stroke-width: 1.0; stroke-dasharray: 5.0,5.0;" x1="87" x2="87" y1="38.2969" y2="551.8906"/><line style="stroke: #808080; stroke-width: 1.0; stroke-dasharray: 5.0,5.0;" x1="261.5" x2="261.5" y1="38.2969" y2="551.8906"/><line style="stroke: #808080; stroke-width: 1.0; stroke-dasharray: 5.0,5.0;" x1="426.5" x2="426.5" y1="38.2969" y2="551.8906"/><line style="stroke: #808080; stroke-width: 1.0; stroke-dasharray: 5.0,5.0;" x1="531" x2="531" y1="38.2969" y2="551.8906"/><rect fill="#FFFFFF" filter="url(#f1)" height="30.2969" style="stroke: #808080; stroke-width: 1.5;" width="154" x="8" y="3"/><text fill="#000000" font-family="sans-serif" font-size="14" lengthAdjust="spacingAndGlyphs" textLength="140" x="15" y="22.9951">IM pending workflow</text><rect fill="#90EE90" filter="url(#f1)" height="30.2969" style="stroke: #808080; stroke-width: 1.5;" width="139" x="190.5" y="3"/><text fill="#000000" font-family="sans-serif" font-size="14" lengthAdjust="spacingAndGlyphs" textLength="125" x="197.5" y="22.9951">Workflow Gateway</text><rect fill="#FFFFFF" filter="url(#f1)" height="30.2969" style="stroke: #808080; stroke-width: 1.5;" width="85" x="382.5" y="3"/><text fill="#000000" font-family="sans-serif" font-size="14" lengthAdjust="spacingAndGlyphs" textLength="71" x="389.5" y="22.9951">Help Desk</text><rect fill="#FFFFFF" filter="url(#f1)" height="30.2969" style="stroke: #808080; stroke-width: 1.5;" width="46" x="506" y="3"/><text fill="#000000" font-family="sans-serif" font-size="14" lengthAdjust="spacingAndGlyphs" textLength="32" x="513" y="22.9951">User</text><rect fill="#D3D3D3" filter="url(#f1)" height="494.5938" style="stroke: #808080; stroke-width: 1.0;" width="10" x="82" y="48.2969"/><rect fill="#D3D3D3" filter="url(#f1)" height="464.4609" style="stroke: #808080; stroke-width: 1.0;" width="10" x="257" y="69.2969"/><rect fill="#D2B48C" filter="url(#f1)" height="28" style="stroke: #808080; stroke-width: 1.0;" width="10" x="262" y="121.4297"/><rect fill="#D2B48C" filter="url(#f1)" height="28" style="stroke: #808080; stroke-width: 1.0;" width="10" x="262" y="469.4922"/><rect fill="#D3D3D3" filter="url(#f1)" height="231.6641" style="stroke: #808080; stroke-width: 1.0;" width="10" x="422" y="185.6953"/><rect fill="#D2B48C" filter="url(#f1)" height="28" style="stroke: #808080; stroke-width: 1.0;" width="10" x="427" y="222.8281"/><rect fill="#D2B48C" filter="url(#f1)" height="28" style="stroke: #808080; stroke-width: 1.0;" width="10" x="427" y="353.2266"/><rect fill="#D3D3D3" filter="url(#f1)" height="29.1328" style="stroke: #808080; stroke-width: 1.0;" width="10" x="526" y="286.9609"/><polygon fill="#2F4F4F" points="245,65.2969,255,69.2969,245,73.2969,249,69.2969" style="stroke: #2F4F4F; stroke-width: 1.0;"/><line style="stroke: #2F4F4F; stroke-width: 1.0;" x1="92" x2="251" y1="69.2969" y2="69.2969"/><text fill="#000000" font-family="sans-serif" font-size="13" lengthAdjust="spacingAndGlyphs" textLength="134" x="99" y="64.3638">Mail (request details)</text><line style="stroke: #2F4F4F; stroke-width: 1.0;" x1="272" x2="314" y1="113.6953" y2="113.6953"/><line style="stroke: #2F4F4F; stroke-width: 1.0;" x1="314" x2="314" y1="113.6953" y2="126.6953"/><line style="stroke: #2F4F4F; stroke-width: 1.0;" x1="273" x2="314" y1="126.6953" y2="126.6953"/><polygon fill="#2F4F4F" points="283,122.6953,273,126.6953,283,130.6953,279,126.6953" style="stroke: #2F4F4F; stroke-width: 1.0;"/><text fill="#000000" font-family="sans-serif" font-size="13" lengthAdjust="spacingAndGlyphs" textLength="63" x="279" y="93.4966">imap mail</text><text fill="#000000" font-family="sans-serif" font-size="13" lengthAdjust="spacingAndGlyphs" textLength="47" x="279" y="108.6294">listener</text><polygon fill="#2F4F4F" points="410,181.6953,420,185.6953,410,189.6953,414,185.6953" style="stroke: #2F4F4F; stroke-width: 1.0;"/><line style="stroke: #2F4F4F; stroke-width: 1.0;" x1="267" x2="416" y1="185.6953" y2="185.6953"/><text fill="#000000" font-family="sans-serif" font-size="13" lengthAdjust="spacingAndGlyphs" textLength="134" x="274" y="180.7622">Mail (request details)</text><line style="stroke: #2F4F4F; stroke-width: 1.0;" x1="437" x2="479" y1="214.9609" y2="214.9609"/><line style="stroke: #2F4F4F; stroke-width: 1.0;" x1="479" x2="479" y1="214.9609" y2="227.9609"/><line style="stroke: #2F4F4F; stroke-width: 1.0;" x1="438" x2="479" y1="227.9609" y2="227.9609"/><polygon fill="#2F4F4F" points="448,223.9609,438,227.9609,448,231.9609,444,227.9609" style="stroke: #2F4F4F; stroke-width: 1.0;"/><text fill="#000000" font-family="sans-serif" font-size="13" lengthAdjust="spacingAndGlyphs" textLength="80" x="444" y="209.895">create ticket</text><polygon fill="#2F4F4F" points="514,282.9609,524,286.9609,514,290.9609,518,286.9609" style="stroke: #2F4F4F; stroke-width: 1.0;"/><line style="stroke: #2F4F4F; stroke-width: 1.0;" x1="432" x2="520" y1="286.9609" y2="286.9609"/><text fill="#000000" font-family="sans-serif" font-size="13" lengthAdjust="spacingAndGlyphs" textLength="68" x="439" y="282.0278">Work to do</text><polygon fill="#2F4F4F" points="443,312.0938,433,316.0938,443,320.0938,439,316.0938" style="stroke: #2F4F4F; stroke-width: 1.0;"/><line style="stroke: #2F4F4F; stroke-width: 1.0;" x1="437" x2="530" y1="316.0938" y2="316.0938"/><text fill="#000000" font-family="sans-serif" font-size="13" lengthAdjust="spacingAndGlyphs" textLength="55" x="449" y="311.1606">I'm done</text><line style="stroke: #2F4F4F; stroke-width: 1.0;" x1="437" x2="479" y1="345.3594" y2="345.3594"/><line style="stroke: #2F4F4F; stroke-width: 1.0;" x1="479" x2="479" y1="345.3594" y2="358.3594"/><line style="stroke: #2F4F4F; stroke-width: 1.0;" x1="438" x2="479" y1="358.3594" y2="358.3594"/><polygon fill="#2F4F4F" points="448,354.3594,438,358.3594,448,362.3594,444,358.3594" style="stroke: #2F4F4F; stroke-width: 1.0;"/><text fill="#000000" font-family="sans-serif" font-size="13" lengthAdjust="spacingAndGlyphs" textLength="72" x="444" y="340.2935">close ticket</text><polygon fill="#2F4F4F" points="278,413.3594,268,417.3594,278,421.3594,274,417.3594" style="stroke: #2F4F4F; stroke-width: 1.0;"/><line style="stroke: #2F4F4F; stroke-width: 1.0;" x1="272" x2="426" y1="417.3594" y2="417.3594"/><text fill="#000000" font-family="sans-serif" font-size="13" lengthAdjust="spacingAndGlyphs" textLength="131" x="284" y="412.4263">Mail (approve/reject)</text><line style="stroke: #2F4F4F; stroke-width: 1.0;" x1="272" x2="314" y1="461.7578" y2="461.7578"/><line style="stroke: #2F4F4F; stroke-width: 1.0;" x1="314" x2="314" y1="461.7578" y2="474.7578"/><line style="stroke: #2F4F4F; stroke-width: 1.0;" x1="273" x2="314" y1="474.7578" y2="474.7578"/><polygon fill="#2F4F4F" points="283,470.7578,273,474.7578,283,478.7578,279,474.7578" style="stroke: #2F4F4F; stroke-width: 1.0;"/><text fill="#000000" font-family="sans-serif" font-size="13" lengthAdjust="spacingAndGlyphs" textLength="53" x="279" y="441.5591">TEWS IM</text><text fill="#000000" font-family="sans-serif" font-size="13" lengthAdjust="spacingAndGlyphs" textLength="99" x="279" y="456.6919">communication</text><polygon fill="#2F4F4F" points="103,529.7578,93,533.7578,103,537.7578,99,533.7578" style="stroke: #2F4F4F; stroke-width: 1.0;"/><line style="stroke: #2F4F4F; stroke-width: 1.0;" x1="97" x2="261" y1="533.7578" y2="533.7578"/><text fill="#000000" font-family="sans-serif" font-size="13" lengthAdjust="spacingAndGlyphs" textLength="141" x="109" y="528.8247">TEWS (approve/reject)</text></g></svg>